<svg width="2646" height="1408" viewBox="0 0 2646 1408" fill="none" xmlns="http://www.w3.org/2000/svg">
<path d="M306.509 1403.79C306.509 1403.79 -54.9944 1019.61 198.494 661.236C293.082 527.511 534.562 452.418 756.542 513.338C887.658 549.322 1086.51 544.013 1280.81 226.835C1545.77 -205.708 2645.71 -9.02917 2431.01 748.81C2340.57 1068.03 2677.65 1082.56 2510.68 1404.48L306.509 1403.79Z" fill="#EBF3FA"/>
<path d="M2263.61 634.173L1476.19 1292.92L1061.9 939.989C984.355 1008.27 864.599 1113.67 744.122 1219.43C661.79 1291.71 595.133 1350.11 541.105 1397.37L164.811 1396.94C269.161 1308.1 689.315 938.885 972.37 689.366L1058.92 613.076L1477.72 969.854L2092.44 455.588L2263.61 634.173Z" fill="#D5E5FB"/>
<path d="M1992.75 374.574L2367.77 750.739L2473.71 321.023L1992.75 374.574Z" fill="#D5E5FB"/>
<path d="M763.361 1167.18C761.961 1132.74 758.942 1102.77 755.328 1081.88C749.568 1048.57 744.382 1029.41 744.322 1029.2C743.563 1026.27 732.602 1014.42 708.23 1014.79C683.859 1015.15 686.17 1030.7 686.17 1030.7C686.168 1031.22 686.237 1031.71 686.344 1032.08C686.579 1032.88 708.951 1114 707.982 1218.73C707.968 1220.2 707.803 1222.74 707.908 1224.43C707.908 1224.44 764.385 1225.89 764.399 1224.43C766.37 1215.28 765.409 1189.92 763.361 1167.18Z" fill="#B7D3F3"/>
<path d="M770.461 1218.21C770.444 1219.67 769.674 1220.84 768.734 1220.84H768.712C767.773 1220.82 767.025 1219.65 767.014 1218.21H718.613C718.596 1219.67 717.825 1220.84 716.886 1220.84H716.863C715.907 1220.82 715.148 1219.61 715.159 1218.14C715.44 1188.16 713.731 1160.16 711.143 1135.45C704.709 1073.83 692.814 1032.65 692.645 1032.08C692.538 1031.71 692.471 1031.22 692.471 1030.7C692.471 1030.7 690.159 1015.16 714.529 1014.79C738.904 1014.42 749.865 1026.28 750.625 1029.21C750.67 1029.36 753.606 1040.21 757.509 1059.72C758.802 1066.18 760.197 1073.59 761.631 1081.88C765.241 1102.77 768.262 1132.74 769.662 1167.18C771.71 1189.92 772.43 1209.06 770.461 1218.21Z" fill="#D2E3FC"/>
<path d="M711.584 1220.84H901.342C901.342 1220.84 896.923 1202.96 787.027 1205.62C709.256 1207.51 711.584 1220.84 711.584 1220.84Z" fill="#C5DCF8"/>
<path d="M696.139 1407.63C718.14 1296.25 712.483 1227.9 712.455 1227.04C712.399 1225.32 715.56 1223.77 717.26 1223.71C718.981 1223.68 726.575 1223.2 727.454 1224.67C728.605 1226.59 733.035 1310.8 700.245 1407.63H696.139Z" fill="#B7D3F3"/>
<path d="M873.313 1407.63C851.312 1296.25 856.969 1227.9 856.997 1227.04C857.053 1225.32 853.892 1223.77 852.192 1223.71C850.47 1223.68 842.877 1223.2 841.998 1224.67C840.847 1226.59 836.416 1310.8 869.207 1407.63H873.313Z" fill="#B7D3F3"/>
<path d="M908.424 1407.63C886.422 1296.25 892.08 1227.9 892.108 1227.04C892.163 1225.32 889.003 1223.77 887.303 1223.71C885.581 1223.68 877.987 1223.2 877.109 1224.67C875.958 1226.59 871.527 1310.8 904.318 1407.63H908.424Z" fill="#B7D3F3"/>
<path d="M731.486 1407.63C753.488 1296.25 747.83 1227.9 747.802 1227.04C747.747 1225.32 750.908 1223.77 752.607 1223.71C754.329 1223.68 761.923 1223.2 762.801 1224.67C763.952 1226.59 768.383 1310.8 735.592 1407.63H731.486Z" fill="#B7D3F3"/>
<path d="M901.454 1226.55H711.696C709.558 1226.55 707.809 1224.8 707.809 1222.66V1220.11C707.809 1217.97 709.558 1216.22 711.696 1216.22H901.454C903.592 1216.22 905.341 1217.97 905.341 1220.11V1222.66C905.341 1224.8 903.592 1226.55 901.454 1226.55Z" fill="#B7D3F3"/>
<path d="M894.788 1055.18L957.865 1041.52L961.58 1050.57C961.58 1050.57 891.981 1091.99 885.46 1089.96C878.939 1087.93 894.788 1055.18 894.788 1055.18Z" fill="#BBCBD1"/>
<path d="M837.441 1340.45C835.861 1342.27 835.66 1344.29 836.442 1346.45C836.442 1346.46 836.448 1346.47 836.457 1346.48C837.903 1350.47 842.68 1354.94 848.229 1359.39C848.937 1359.96 849.568 1360.48 850.118 1360.97C850.262 1361.09 850.407 1361.22 850.542 1361.35C850.654 1361.45 850.761 1361.55 850.869 1361.64C856.043 1366.41 854.096 1367.5 863.392 1377.18C873.992 1388.21 881.289 1388.41 883.366 1387.41C885.122 1386.55 881.554 1380.7 877.6 1374.13C877.408 1373.81 877.221 1373.49 877.024 1373.17C876.498 1372.29 875.974 1371.41 875.452 1370.53C870.818 1362.61 872.008 1358.9 873.106 1347.13C873.999 1337.56 887.992 1293.67 887.992 1293.67L867.679 1290.17C867.679 1290.17 861.562 1325.12 854.822 1330.5C851.218 1333.37 847.184 1333.41 843.72 1335.53C843.475 1335.68 843.235 1335.83 842.999 1335.99C841.031 1337.29 839.026 1338.64 837.441 1340.45Z" fill="#BBCBD1"/>
<path d="M837.441 1340.45C835.861 1342.27 835.66 1344.29 836.442 1346.45C836.442 1346.46 836.448 1346.47 836.457 1346.48C838.228 1350.47 842.885 1354.91 848.248 1359.35C848.949 1359.93 849.567 1360.47 850.118 1360.97C850.262 1361.09 850.407 1361.22 850.542 1361.35C850.654 1361.45 850.761 1361.55 850.869 1361.64C856.043 1366.41 854.096 1367.5 863.392 1377.18C873.992 1388.21 881.289 1388.41 883.366 1387.41C885.122 1386.55 881.554 1380.7 877.6 1374.13C875.537 1373.37 865.952 1369.48 858.706 1360.2C852.323 1352.06 848.067 1341.59 843.721 1335.53C843.476 1335.68 843.236 1335.83 843 1335.99C841.031 1337.29 839.026 1338.64 837.441 1340.45Z" fill="#1C468A"/>
<path d="M1001.23 1327.77C1002.48 1334.04 1011.42 1332.99 1021.41 1330.55C1031.39 1328.11 1029.02 1331.01 1043.23 1329.44C1057.44 1327.87 1061.75 1322.57 1062.18 1320.46C1062.57 1318.58 1055.54 1317.92 1048.01 1317.05C1047.07 1316.95 1046.11 1316.83 1045.16 1316.71C1036.66 1315.65 1030.43 1310.16 1022.71 1305.65C1015.39 1301.38 1004.47 1283.99 1004.47 1283.99L984.984 1285.53C984.984 1285.53 995.211 1301.07 999.167 1307.82C1001.49 1311.79 1001.37 1317.05 1001.08 1321.1C1000.93 1323.31 1000.79 1325.56 1001.23 1327.77Z" fill="#BBCBD1"/>
<path d="M1021.41 1330.55C1031.39 1328.11 1029.02 1331.01 1043.23 1329.44C1057.44 1327.87 1061.75 1322.57 1062.18 1320.46C1062.57 1318.58 1055.54 1317.92 1048.01 1317.05L1047.94 1317.2C1047.94 1317.2 1039.42 1323.24 1027.59 1323.52C1017.95 1323.76 1007.74 1321 1001.08 1321.1C1000.93 1323.31 1000.78 1325.56 1001.23 1327.77C1002.48 1334.04 1011.42 1332.99 1021.41 1330.55Z" fill="#1C468A"/>
<path d="M957.865 1041.52C957.865 1041.52 962.508 1030.14 967.616 1029.68C972.724 1029.21 988.976 1026.66 990.137 1028.98C991.298 1031.3 990.137 1039.66 986.655 1042.68C983.173 1045.7 961.581 1050.57 961.581 1050.57L957.865 1041.52Z" fill="#BBCBD1"/>
<path d="M926.542 1203.15L884.539 1316.19C884.539 1316.19 878.086 1316.81 871.9 1315.03C866.207 1313.39 859.684 1309.08 859.684 1309.08C859.684 1309.08 870.103 1200.54 889.206 1177.97C908.308 1155.39 926.542 1203.15 926.542 1203.15Z" fill="#163560"/>
<path d="M760.409 1157.42C760.409 1157.42 881.101 1116.61 908.018 1125.29C934.935 1133.98 1015.75 1294.77 1015.75 1294.77C1015.75 1294.77 1013.93 1297.19 1008.95 1299.06C1004.32 1300.8 993.11 1300.69 993.11 1300.69C993.11 1300.69 920.173 1238.17 911.491 1219.94C902.808 1201.7 899.335 1184.34 890.652 1186.07C881.969 1187.81 778.642 1228.62 755.198 1204.31C731.754 1179.99 737.885 1148.41 737.885 1148.41L760.409 1157.42Z" fill="#1C468A"/>
<path d="M829.217 869.65C824 866.685 817.748 866.361 813.375 866.62C814.501 865.458 816.716 865.034 816.716 865.034C814.004 864.631 807.952 867.32 807.952 867.32C770.232 852.786 764.303 908.326 765.096 921.229C765.883 934.13 765.978 948.983 747.149 960.555C710.1 983.325 741.36 1023.08 741.36 1023.08C741.652 1023.25 758.598 1051.99 758.598 1051.99C757.646 1041.56 805.757 986.537 830.857 970.057C836.967 961.062 839.139 945.17 839.301 943.919C838.246 956.52 836.091 963.587 834.164 967.566C855.419 948.006 843.045 877.508 829.217 869.65Z" fill="#3AA1C9"/>
<path d="M829.371 970.878C829.496 970.935 817.252 977.292 808.041 974.774C799.377 972.412 793.717 961.178 793.836 961.153C797.505 960.424 798.563 955.382 798.485 933.716L800.144 934.042L828.033 939.564C828.033 939.564 827.399 948.341 827.38 956.609C827.36 963.553 827.781 970.137 829.371 970.878Z" fill="#BBCBD1"/>
<path d="M828.033 939.564C828.033 939.564 827.399 948.341 827.38 956.609C811.774 956.17 803.525 941.933 800.145 934.042L828.033 939.564Z" fill="#ED975D"/>
<path d="M797.264 931.006C797.264 931.006 789.085 918.084 787.122 907.034C785.721 899.145 789.739 869.904 819.123 874.115C819.123 874.115 827.658 874.956 835.68 880.375C842.06 884.684 851.267 893.986 840.973 919.503L838.299 928.123L797.264 931.006Z" fill="#3AA1C9"/>
<path d="M833.245 947.395C833.245 947.395 796.321 948.003 796.295 925.003C796.27 902.003 791.487 886.591 815.061 885.23C838.635 883.869 843.225 892.64 845.101 900.315C846.977 907.99 842.849 946.643 833.245 947.395Z" fill="#BBCBD1"/>
<path d="M831.878 884.666C831.878 884.666 821.768 911.65 806.253 915.64C790.738 919.63 784.008 915.473 784.008 915.473C784.008 915.473 795.909 906.019 798.379 889.516C798.379 889.516 824.252 871.823 831.878 884.666Z" fill="#3AA1C9"/>
<path d="M829.373 886.857C829.373 886.857 836.923 892.88 838.764 898.738C840.605 904.595 841.432 916.651 844.947 916.241C844.947 916.241 852.564 897.9 844.004 887.525C834.926 876.523 829.373 886.857 829.373 886.857Z" fill="#3AA1C9"/>
<path d="M747.149 1070.21C743.508 1054.94 755.896 1025.31 768.828 1000.78C780.562 978.542 792.742 960.504 793.836 961.152C824.783 979.52 827.58 964.249 827.58 964.249L827.581 964.252C827.593 964.254 855.694 967.982 863.652 981.684C873.525 998.685 884.193 1046.19 894.787 1055.18C893.16 1060.16 893.858 1062.81 895.582 1068.98C895.953 1070.3 896.359 1071.56 896.809 1072.75C898.406 1077.09 900.404 1080.62 902.128 1083.68C896.742 1086.95 886.342 1093.17 878.679 1088.7C866.997 1081.86 857.884 1061.05 852.753 1052.76C852.734 1052.73 852.715 1052.7 852.696 1052.67C841.547 1115.78 856.707 1130.15 849.032 1136.81C840.928 1143.83 829.349 1133.46 803.878 1144.5C787.171 1151.75 763.987 1162.22 748.38 1164.05C740.195 1165.01 734.087 1163.58 732.096 1158.06C726.309 1141.99 754.096 1099.33 747.149 1070.21Z" fill="#1C468A"/>
<path d="M825.036 933.451C825.036 933.451 825.724 936.372 832.993 935.922C832.993 935.922 839.096 935.545 838.91 932.333C838.91 932.333 832.992 930.05 825.036 933.451Z" fill="white"/>
<path d="M732.098 1158.06C734.089 1163.58 740.197 1165.01 748.382 1164.05C759.184 1159.34 805.849 1141.26 805.327 1129.01C804.552 1110.88 796.354 1110.3 802.143 1087.91C806.791 1069.94 763.674 1036.52 756.796 1029.25C743.864 1053.78 743.507 1054.94 747.148 1070.21C754.096 1099.33 726.309 1141.99 732.098 1158.06Z" fill="#163560"/>
<path d="M726.823 1092.64C735.098 1081.02 743.72 1074.88 749.391 1071.79C748.086 1068.42 784.2 1024.15 784.2 1017.29C784.2 1010.34 793.836 961.149 793.836 961.149C793.836 961.149 763.745 963.007 753.326 977.537C740.295 995.708 713.234 1065.64 726.823 1092.64Z" fill="#1C468A"/>
<path d="M749.391 1071.79L809.525 1087.48L803.881 1097.61C803.881 1097.61 730.701 1097.1 726.824 1092.64C722.945 1088.19 749.391 1071.79 749.391 1071.79Z" fill="#BBCBD1"/>
<path d="M852.754 1052.76C857.884 1061.05 866.998 1081.86 878.68 1088.7C886.343 1093.17 896.743 1086.95 902.129 1083.67C900.405 1080.61 898.407 1077.09 896.81 1072.75C892.512 1073.73 887.266 1074.99 883.884 1076.01C877.302 1078 852.754 1052.76 852.754 1052.76Z" fill="#163560"/>
<path d="M809.524 1087.48C809.524 1087.48 828.407 1082.13 832.905 1083.38C837.403 1084.63 852.814 1094.84 850.648 1097.61C848.481 1100.38 834.904 1095.95 828.657 1096.79C822.41 1097.63 817.578 1100.71 813.08 1100.04C808.582 1099.38 803.879 1097.61 803.879 1097.61L809.524 1087.48Z" fill="#BBCBD1"/>
<path d="M809.524 1087.48C809.524 1087.48 818.763 1082.73 821.391 1080.03C821.723 1079.69 822.284 1079.76 822.539 1080.16C823.243 1081.27 823.902 1083.42 820.661 1085.55C815.997 1088.62 809.524 1087.48 809.524 1087.48Z" fill="#BBCBD1"/>
<path d="M896.791 1114.05H808.69C808.69 1110.17 811.834 1107.02 815.713 1107.02H896.791V1114.05Z" fill="#00AEEF"/>
<path d="M896.539 1018.09H1032.75L1000.08 1114.05H862.983L896.539 1018.09Z" fill="#00AEEF"/>
<path d="M1034.76 1018.1L1002.08 1114.04H864.991L898.544 1018.1H1034.76Z" fill="#00AEEF"/>
<path d="M961.319 1065.18C960.472 1068.85 956.815 1071.82 953.149 1071.82C949.483 1071.82 947.197 1068.85 948.044 1065.18C948.89 1061.52 952.548 1058.54 956.214 1058.54C959.88 1058.54 962.165 1061.52 961.319 1065.18Z" fill="#F9DDBF"/>
<path d="M1034.76 1018.1L1002.08 1114.04H911.293C971.434 1093.52 987.444 1030.93 990.129 1018.1H1034.76Z" fill="#ED893E"/>
<path d="M639.318 1407.63C641.041 1407.63 642.514 1406.42 642.808 1404.76L659.916 1307.79L684.523 1168.33L691.404 1129.34L673.877 1128.84L670.836 1151.47L649.484 1310.57L636.825 1404.87C636.632 1406.33 637.8 1407.63 639.318 1407.63Z" fill="#95C0F4"/>
<path d="M670.836 1151.47C682.192 1156.49 684.523 1168.33 684.523 1168.33L691.404 1129.34L673.877 1128.84L670.836 1151.47Z" fill="#78ACEA"/>
<path d="M1075.26 1407.63C1073.54 1407.63 1072.07 1406.42 1071.77 1404.76L1054.67 1307.79L1030.06 1168.33L1023.18 1129.34L1040.7 1128.84L1043.74 1151.47L1065.1 1310.57L1077.75 1404.87C1077.95 1406.33 1076.78 1407.63 1075.26 1407.63Z" fill="#95C0F4"/>
<path d="M1043.74 1151.47C1032.39 1156.49 1030.06 1168.33 1030.06 1168.33L1023.18 1129.34L1040.7 1128.84L1043.74 1151.47Z" fill="#78ACEA"/>
<path d="M627.624 1144.65H1076.46C1082.34 1144.65 1087.15 1139.84 1087.15 1133.96V1124.72C1087.15 1118.84 1082.34 1114.03 1076.46 1114.03H627.624C621.744 1114.03 616.934 1118.84 616.934 1124.72V1133.96C616.934 1139.84 621.745 1144.65 627.624 1144.65Z" fill="#78ACEA"/>
<path d="M2642.71 1406.7H3.85881C2.21081 1406.7 0.861816 1405.35 0.861816 1403.71V1402.68C0.861816 1401.04 2.21081 1399.69 3.85881 1399.69H2642.71C2644.36 1399.69 2645.71 1401.04 2645.71 1402.68V1403.71C2645.71 1405.35 2644.36 1406.7 2642.71 1406.7Z" fill="#2E3552"/>
<path d="M1742.47 1097.71C1742.47 1097.71 1730.82 1112.15 1734.47 1114.12C1738.11 1116.09 1747.72 1119.77 1749.99 1117.45C1752.26 1115.13 1752.97 1098.11 1752.97 1098.11L1742.47 1097.71Z" fill="#BBCBD1"/>
<path d="M1742.94 1097.95C1742.94 1097.95 1738.18 1099.6 1736.31 1102.07C1734.44 1104.55 1730.3 1108.33 1731.31 1109.37C1732.33 1110.42 1738.27 1105.8 1738.27 1105.8L1742.94 1097.95Z" fill="#BBCBD1"/>
<path d="M1786.48 904.877C1786.48 904.877 1773.36 1027.04 1772.19 1030.53C1771.93 1031.28 1770.91 1035.15 1769.46 1040.71C1767.39 1048.66 1764.47 1060.08 1761.7 1070.93C1757.53 1087.34 1753.7 1102.47 1753.7 1102.47L1742.3 1098.72C1742.3 1098.72 1741.71 1039.35 1744.64 1025.68C1747.58 1012 1756.95 928.013 1761.69 916.709C1766.41 905.404 1786.48 904.877 1786.48 904.877Z" fill="#AEC3FF"/>
<path d="M1759.19 1197.84L1687.62 1179.07C1678.31 1176.62 1672.68 1167 1675.12 1157.69L1683.26 1126.67C1685.7 1117.36 1695.32 1111.73 1704.64 1114.18L1776.21 1132.95C1785.53 1135.39 1791.15 1145.01 1788.71 1154.33L1780.57 1185.34C1778.13 1194.66 1768.51 1200.28 1759.19 1197.84Z" fill="#A02E2E"/>
<path d="M1692.7 1129.13L1684.47 1160.5C1682.88 1166.58 1684.7 1172.78 1688.74 1177.05C1690.07 1178.47 1691.65 1179.68 1693.44 1180.59C1693.44 1180.59 1693.44 1180.59 1693.45 1180.59L1693.45 1180.6C1694.56 1181.17 1695.75 1181.63 1697.02 1181.96L1768.46 1200.7C1777.81 1203.15 1787.47 1197.51 1789.92 1188.16L1798.15 1156.78C1800.6 1147.43 1794.96 1137.77 1785.61 1135.32L1761 1128.87L1762.76 1122.18C1763.57 1119.08 1761.71 1115.91 1758.62 1115.1L1755.93 1114.39L1740.96 1110.47L1737.24 1109.49C1735.75 1109.1 1734.19 1109.32 1732.85 1110.1C1731.51 1110.88 1730.55 1112.14 1730.16 1113.63L1728.41 1120.32L1714.16 1116.58C1713.59 1116.43 1713.03 1116.32 1712.47 1116.23C1712.46 1116.23 1712.46 1116.23 1712.45 1116.23L1712.45 1116.22C1706.72 1115.31 1701.05 1117.34 1697.15 1121.29L1697.15 1121.3C1695.07 1123.41 1693.5 1126.07 1692.7 1129.13ZM1757.49 1127.95L1731.92 1121.24L1733.68 1114.55C1733.98 1113.4 1735.17 1112.7 1736.32 1113.01L1742.74 1114.69L1754.52 1117.78L1757.7 1118.61C1757.92 1118.67 1758.12 1118.76 1758.3 1118.87C1759.08 1119.36 1759.49 1120.32 1759.25 1121.26L1757.49 1127.95Z" fill="#3AA1C9"/>
<path d="M1749.27 1117.77C1749.27 1117.77 1752.45 1112.42 1751.26 1110.55C1750.07 1108.68 1745.78 1116.1 1745.78 1116.1C1745.78 1116.1 1748.71 1109.73 1747.62 1108.68C1746.52 1107.63 1742.03 1114.95 1742.03 1114.95C1742.03 1114.95 1744.83 1108.76 1743.85 1108.55C1742.87 1108.34 1739.54 1113.76 1739.54 1113.76C1739.54 1113.76 1741.27 1109.12 1739.69 1109.35C1738.11 1109.57 1734.69 1113.79 1734.69 1113.79L1749.27 1117.77Z" fill="#BBCBD1"/>
<path d="M1769.46 1040.71C1767.39 1048.66 1764.47 1060.08 1761.7 1070.94C1759.92 1065.92 1757.65 1057.93 1756.22 1046.97C1753.58 1026.76 1761.69 983.684 1761.69 983.684L1769.46 1040.71Z" fill="#9DB0F4"/>
<path d="M1919.59 1092.68C1919.59 1092.68 1932.28 1102.99 1933.85 1106.21C1935.41 1109.43 1939.36 1121.35 1939.15 1125.19C1938.94 1129.03 1929.43 1116.4 1926.63 1115.38C1923.84 1114.36 1929.55 1120.57 1928.91 1121.9C1928.27 1123.23 1922.31 1118.88 1920.04 1117.46C1917.77 1116.04 1916.18 1106.4 1912.79 1101.15C1909.41 1095.91 1919.59 1092.68 1919.59 1092.68Z" fill="#BBCBD1"/>
<path d="M1753.09 1401.32H1816.35C1820.88 1398.25 1815.13 1368.19 1815.13 1368.19C1815.13 1368.19 1797.86 1361.64 1794.88 1374.96C1791.89 1388.28 1772.89 1392.51 1762.83 1394.14C1755.95 1395.26 1753.77 1399.04 1753.09 1401.32Z" fill="#233862"/>
<path d="M1846.91 1401.32H1910.18C1914.71 1398.25 1908.95 1368.19 1908.95 1368.19C1908.95 1368.19 1891.69 1361.64 1888.7 1374.96C1885.71 1388.28 1866.71 1392.51 1856.66 1394.14C1849.77 1395.26 1847.6 1399.04 1846.91 1401.32Z" fill="#233862"/>
<path d="M1770.11 1094.73C1770.11 1094.73 1772.95 1130.21 1776.29 1172.85C1780.83 1230.79 1793.09 1374.42 1793.09 1374.42C1793.09 1374.42 1801.12 1381.27 1818.91 1377.52C1818.91 1377.52 1834.05 1327.97 1838.58 1271.42C1838.65 1270.49 1838.72 1269.56 1838.79 1268.62C1843.01 1211.05 1849.56 1089.81 1849.56 1089.81L1770.11 1094.73Z" fill="#2B478B"/>
<path d="M1769.14 1082.47C1769.14 1082.47 1772.95 1130.21 1776.29 1172.86L1838.58 1271.42C1838.65 1270.49 1838.72 1269.56 1838.79 1268.62C1843.01 1211.05 1849.56 1089.82 1849.56 1089.82L1769.14 1082.47Z" fill="#233862"/>
<path d="M1787.29 1082.47C1787.29 1082.47 1832.47 1194.93 1846.91 1237.56C1857.2 1267.92 1886.21 1374.44 1886.21 1374.44C1886.21 1374.44 1898.83 1378.28 1909.43 1370.86C1909.43 1370.86 1920.23 1262.03 1898.42 1231.34C1886.86 1215.06 1895.55 1062.11 1848.65 1060.8C1801.74 1059.49 1787.29 1082.47 1787.29 1082.47Z" fill="#2B478B"/>
<path d="M1873.38 1092.68C1854.55 1103.31 1773.84 1103.07 1770.11 1094.73C1761.76 1076.1 1759.66 981.451 1763.6 952.417C1763.6 952.417 1765.64 907.797 1770.11 909.767C1799.92 896.072 1848.17 908.509 1848.17 908.509C1861.18 912.342 1860.06 942.071 1863.69 983.817C1864.16 989.197 1864.67 994.804 1865.25 1000.6C1867.82 1026.38 1871.56 1055.99 1877.23 1087.23C1877.61 1089.29 1876.18 1091.11 1873.38 1092.68Z" fill="#AEC3FF"/>
<path d="M1825.87 903.488C1825.37 911.469 1814.96 910.564 1802.45 907.707C1789.94 904.859 1794.47 897.476 1794.47 897.476C1794.47 897.476 1794.65 891.806 1795.44 885.011C1795.73 882.541 1796.09 879.912 1796.57 877.364C1796.79 876.116 1797.03 874.885 1797.31 873.698C1798.95 866.675 1822.31 873.452 1822.15 875.343C1821.69 880.439 1825.38 897.221 1825.87 903.488Z" fill="#BBCBD1"/>
<path d="M1799.05 917.417L1798.06 906.392L1811.91 909.006L1806.58 918.85L1799.05 917.417Z" fill="#233862"/>
<path d="M1794.76 892.285L1786.48 904.875C1786.48 904.875 1786.48 912.619 1793.67 918.239L1804.99 907.698C1804.99 907.698 1797.67 904.906 1794.76 892.285Z" fill="#9DB0F4"/>
<path d="M1804.99 907.698C1804.99 907.698 1807.33 916.116 1811.86 919.979C1811.86 919.979 1829.54 915.227 1833.75 906.172L1824.55 894.288C1824.55 894.288 1824.1 903.278 1804.99 907.698Z" fill="#9DB0F4"/>
<path d="M1822.28 879.306C1822.28 879.306 1811.03 886.786 1795.44 885.011C1795.73 882.541 1796.09 879.912 1796.57 877.364C1799.64 876.617 1802.22 876.151 1802.22 876.151L1822.28 879.306Z" fill="#E2915A"/>
<path d="M1829.42 870.806C1823.92 885.941 1803.85 882.077 1795.31 879.647C1792.9 878.966 1791.41 878.398 1791.41 878.398C1788.77 877.2 1787.95 872.591 1788.19 866.771C1788.64 855.251 1793.19 838.988 1795.8 835.068C1799.73 829.172 1806.28 823.175 1825.74 831.525C1845.22 839.878 1836.47 851.415 1829.42 870.806Z" fill="#BBCBD1"/>
<path d="M1844.45 863.035C1838.31 868.046 1825.11 877.319 1825.11 877.319C1825.11 877.319 1826.58 875.583 1828.37 870.581C1828.58 870.013 1828.64 869.182 1828.61 868.3C1828.54 865.847 1829.13 863.399 1830.42 861.31C1831.22 860.004 1831.51 858.65 1830.5 857.691C1828.83 856.112 1825.98 857.562 1824.11 858.84C1822.88 859.683 1821.26 859.732 1820 858.944C1819.99 858.939 1819.98 858.934 1819.97 858.929C1814.73 855.642 1820.52 849.849 1816.26 845.04C1811.98 840.232 1793.52 839.572 1794.26 836.558C1787.96 832.997 1791.93 819.856 1792.05 819.162C1792.05 819.162 1801.09 819.962 1812.39 817.141C1821.56 814.838 1831.67 820.728 1834.87 823.154C1834.87 822.574 1834.77 821.765 1834.36 820.913C1834.36 820.913 1835.74 822.284 1835.72 823.884C1835.86 824.025 1835.92 824.121 1835.88 824.148C1835.88 824.148 1837.7 824.113 1838.77 824.816C1838.77 824.816 1837.99 824.57 1837.62 825.036C1837.57 825.089 1837.52 825.124 1837.46 825.159C1849.73 833.825 1849.55 858.868 1844.45 863.035Z" fill="#233862"/>
<path d="M1800.4 868.62C1800.4 868.62 1799.41 870.526 1794.45 868.945C1794.45 868.945 1790.28 867.619 1790.97 865.424C1790.97 865.424 1795.47 864.873 1800.4 868.62Z" fill="white"/>
<path d="M1799.05 917.416C1799.05 917.416 1787.99 1057.1 1788.15 1068.74C1788.3 1080.38 1800.4 1092.68 1800.4 1092.68C1800.4 1092.68 1810.03 1082.13 1811.92 1071C1813.8 1059.86 1806.58 918.848 1806.58 918.848L1799.05 917.416Z" fill="#2A4E96"/>
<path d="M1848.17 908.512C1848.17 908.512 1866.01 912.783 1880.12 939.882C1894.23 966.981 1905.37 1021.64 1912.1 1036.06C1918.84 1050.49 1923.46 1095.92 1923.46 1095.92L1912.79 1101.15C1912.79 1101.15 1887.05 1054.59 1883.24 1039.32C1881.18 1031.06 1849.7 964.929 1849.7 964.929L1848.17 908.512Z" fill="#AEC3FF"/>
<path d="M1873.38 1092.68C1873.38 1092.68 1873.38 1092.68 1873.37 1092.68C1839.77 1087.85 1849.4 976.651 1852.03 976.21C1854.67 975.771 1864.33 996.085 1864.33 996.085L1865.25 1000.6C1867.82 1026.38 1871.56 1055.99 1877.23 1087.23C1877.61 1089.29 1876.18 1091.11 1873.38 1092.68Z" fill="#9DB0F4"/>
<path d="M2292.58 1335.59C2292.58 1335.59 2306.57 1348.36 2303.84 1357.43C2301.11 1366.5 2288.49 1372.55 2286.78 1383.64C2285.07 1394.72 2278.25 1400.77 2272.11 1400.77C2265.97 1400.77 2242.83 1400.77 2242.83 1400.77C2242.83 1400.77 2238.31 1392.97 2249.22 1390.62C2260.14 1388.27 2264.26 1375.24 2263.58 1363.14C2262.89 1351.05 2264.6 1334.92 2264.6 1334.92L2287.8 1329.55L2292.58 1335.59Z" fill="#233862"/>
<path d="M2120.96 1368.61C2120.96 1368.61 2123.47 1397.67 2117.32 1400.69L2038.73 1400.53C2038.73 1400.53 2038.73 1391.46 2051.35 1389.44C2063.97 1387.43 2086.15 1380.04 2089.91 1363.57C2093.66 1347.11 2120.96 1368.61 2120.96 1368.61Z" fill="#233862"/>
<path d="M2054.6 958.198C2054.6 958.198 2058.74 1009.13 2063.62 1070.35C2070.24 1153.51 2078.2 1255.66 2078.99 1275.01C2080.35 1308.61 2085.82 1362.36 2085.82 1362.36C2085.82 1362.36 2098.78 1375.13 2124.71 1369.75C2124.71 1369.75 2147.83 1293.02 2154.43 1211.83C2154.53 1210.5 2154.63 1209.16 2154.74 1207.82C2160.88 1125.18 2170.43 951.142 2170.43 951.142L2054.6 958.198Z" fill="#2A4E96"/>
<path d="M2054.6 958.198C2054.6 958.198 2058.74 1009.13 2063.62 1070.35L2154.43 1211.83C2154.53 1210.5 2154.63 1209.16 2154.74 1207.82C2160.88 1125.17 2170.43 951.141 2170.43 951.141L2054.6 958.198Z" fill="#233862"/>
<path d="M2073.53 964.245C2073.53 964.245 2148.25 1148.69 2197.38 1235.37C2246.52 1322.05 2261.87 1346.24 2261.87 1346.24C2261.87 1346.24 2290.02 1335.15 2292.58 1327.59C2292.58 1327.59 2273.79 1160.25 2240.89 1119.46C2222.29 1096.41 2206.26 1045.27 2207.06 1021.07C2208.45 979.343 2192.78 930.984 2192.78 930.984L2073.53 964.245Z" fill="#2A4E96"/>
<path d="M2013.86 966.955C2013.86 966.955 1999.91 985.847 1998.88 990.889C1997.85 995.932 1996.65 1013.93 1998.32 1019.2C1999.99 1024.47 2008.68 1003.48 2012.21 1001.06C2015.73 998.637 2010 1009.32 2011.38 1010.94C2012.75 1012.57 2019.47 1004.38 2022.12 1001.59C2024.76 998.792 2023.52 984.811 2026.35 976.299C2029.17 967.787 2013.86 966.955 2013.86 966.955Z" fill="#BBCBD1"/>
<path d="M2075.39 692.424C2075.39 692.424 2056.54 867.932 2054.86 872.933C2054.49 874.019 2053.01 879.576 2050.93 887.569C2047.96 898.985 2043.77 915.389 2039.79 930.985C2033.79 954.549 2027.31 974.926 2027.31 974.926C2027.31 974.926 2024.46 976.768 2017.6 976.182C2012.91 975.783 2010.38 971.782 2010.38 971.782C2010.38 971.782 2011.07 885.612 2015.28 865.975C2019.5 846.325 2032.96 725.662 2039.77 709.421C2046.56 693.182 2075.39 692.424 2075.39 692.424Z" fill="white"/>
<path d="M2050.93 887.568C2047.96 898.984 2043.77 915.388 2039.79 930.984C2037.23 923.773 2033.97 912.295 2031.91 896.559C2028.12 867.514 2039.76 805.635 2039.76 805.635L2050.93 887.568Z" fill="#DCEAFF"/>
<path d="M2200.23 962.227C2173.17 977.495 2057.23 977.155 2051.86 965.17C2039.87 938.41 2036.86 802.429 2042.52 760.717C2042.52 760.717 2045.45 696.616 2051.86 699.444C2094.68 679.769 2164 697.638 2164 697.638C2182.69 703.144 2181.09 745.853 2186.3 805.825C2186.97 813.554 2187.72 821.611 2188.55 829.933C2192.24 866.971 2197.61 909.516 2205.76 954.397C2206.31 957.353 2204.25 959.967 2200.23 962.227Z" fill="white"/>
<path d="M2131.98 690.428C2131.26 701.895 2116.31 700.594 2098.32 696.491C2080.35 692.399 2086.86 681.791 2086.86 681.791C2086.86 681.791 2087.12 673.645 2088.26 663.884C2088.67 660.336 2089.19 656.56 2089.87 652.898C2090.19 651.105 2090.54 649.337 2090.95 647.632C2093.3 637.542 2126.86 647.278 2126.62 649.993C2125.97 657.317 2131.27 681.424 2131.98 690.428Z" fill="#BBCBD1"/>
<path d="M2093.44 710.438L2092.02 694.599L2111.92 698.354L2104.26 712.495L2093.44 710.438Z" fill="#233862"/>
<path d="M2087.28 674.333L2075.39 692.419C2075.39 692.419 2075.39 703.546 2085.71 711.619L2101.97 696.476C2101.97 696.476 2091.46 692.466 2087.28 674.333Z" fill="#DCEAFF"/>
<path d="M2101.97 696.477C2101.97 696.477 2105.34 708.57 2111.85 714.12C2111.85 714.12 2137.25 707.293 2143.3 694.285L2130.07 677.213C2130.07 677.213 2129.43 690.126 2101.97 696.477Z" fill="#DCEAFF"/>
<path d="M2126.81 655.688C2126.81 655.688 2110.65 666.435 2088.26 663.883C2088.67 660.335 2089.19 656.559 2089.87 652.897C2094.29 651.823 2097.99 651.154 2097.99 651.154L2126.81 655.688Z" fill="#E2915A"/>
<path d="M2137.07 643.477C2129.17 665.22 2100.34 659.668 2088.07 656.178C2084.61 655.201 2082.47 654.383 2082.47 654.383C2078.68 652.662 2077.5 646.041 2077.83 637.679C2078.49 621.13 2085.02 597.765 2088.77 592.135C2094.42 583.663 2103.83 575.05 2131.79 587.045C2159.76 599.044 2147.2 615.62 2137.07 643.477Z" fill="#BBCBD1"/>
<path d="M2158.67 632.313C2149.84 639.511 2130.88 652.834 2130.88 652.834C2130.88 652.834 2132.99 650.34 2135.57 643.154C2135.86 642.337 2135.95 641.144 2135.91 639.877C2135.81 636.353 2136.66 632.835 2138.51 629.833C2139.66 627.958 2140.08 626.012 2138.62 624.634C2136.22 622.364 2132.13 624.448 2129.45 626.285C2127.68 627.496 2125.36 627.567 2123.54 626.436C2123.53 626.429 2123.52 626.422 2123.5 626.414C2115.96 621.691 2124.29 613.369 2118.16 606.461C2112.02 599.554 2085.5 598.607 2086.57 594.275C2077.51 589.16 2083.22 570.281 2083.38 569.283C2083.38 569.283 2096.38 570.432 2112.6 566.379C2125.78 563.07 2140.3 571.531 2144.89 575.017C2144.89 574.183 2144.76 573.022 2144.16 571.797C2144.16 571.797 2146.16 573.767 2146.12 576.065C2146.32 576.267 2146.41 576.406 2146.35 576.444C2146.35 576.444 2148.97 576.393 2150.5 577.403C2150.5 577.403 2149.38 577.049 2148.85 577.719C2148.79 577.795 2148.71 577.845 2148.62 577.896C2166.25 590.349 2165.99 626.327 2158.67 632.313Z" fill="#3AA1C9"/>
<path d="M2095.38 640.335C2095.38 640.335 2093.96 643.073 2086.83 640.802C2086.83 640.802 2080.85 638.896 2081.84 635.744C2081.84 635.744 2088.3 634.952 2095.38 640.335Z" fill="white"/>
<path d="M2093.44 710.438C2093.44 710.438 2077.56 911.108 2077.78 927.828C2078 944.547 2095.38 962.227 2095.38 962.227C2095.38 962.227 2109.22 947.074 2111.92 931.078C2114.63 915.082 2104.26 712.495 2104.26 712.495L2093.44 710.438Z" fill="#2A4E96"/>
<path d="M2200.23 962.227C2200.22 962.227 2200.22 962.227 2200.21 962.227C2151.94 955.282 2165.77 795.534 2169.56 794.903C2173.35 794.271 2187.23 823.456 2187.23 823.456L2188.55 829.935C2192.24 866.973 2197.61 909.518 2205.76 954.399C2206.31 957.353 2204.25 959.967 2200.23 962.227Z" fill="#DCEAFF"/>
<path d="M2342.12 1081.23L2240.06 1110.93C2226.77 1114.79 2212.74 1107.09 2208.87 1093.8L2196 1049.57C2192.14 1036.29 2199.84 1022.26 2213.13 1018.39L2315.19 988.69C2328.48 984.824 2342.51 992.53 2346.38 1005.81L2359.25 1050.05C2363.11 1063.33 2355.41 1077.36 2342.12 1081.23Z" fill="#A02E2E"/>
<path d="M2209.45 1045.63L2222.47 1090.37C2224.99 1099.03 2231.82 1105.33 2239.94 1107.62C2242.64 1108.38 2245.47 1108.7 2248.35 1108.51C2248.36 1108.51 2248.36 1108.51 2248.37 1108.51L2248.37 1108.51C2250.16 1108.4 2251.97 1108.09 2253.77 1107.56L2355.65 1077.91C2368.99 1074.03 2376.72 1059.95 2372.84 1046.62L2359.82 1001.87C2355.94 988.535 2341.86 980.802 2328.52 984.68L2293.44 994.892L2290.67 985.345C2289.39 980.933 2284.75 978.395 2280.34 979.674L2276.5 980.792L2255.16 987.003L2249.85 988.548C2247.73 989.164 2245.96 990.587 2244.88 992.537C2243.81 994.493 2243.56 996.745 2244.18 998.873L2246.96 1008.42L2226.63 1014.33C2225.83 1014.56 2225.05 1014.83 2224.29 1015.14C2224.29 1015.14 2224.28 1015.15 2224.28 1015.15L2224.27 1015.15C2216.54 1018.25 2211.04 1024.94 2209.16 1032.68L2209.16 1032.69C2208.16 1036.83 2208.18 1041.26 2209.45 1045.63ZM2288.43 996.345L2251.97 1006.96L2249.2 997.413C2248.72 995.771 2249.67 994.04 2251.31 993.56L2260.47 990.897L2277.26 986.003L2281.8 984.688C2282.11 984.599 2282.42 984.562 2282.73 984.568C2284.05 984.591 2285.26 985.47 2285.66 986.804L2288.43 996.345Z" fill="#3AA1C9"/>
<path d="M2257.85 967.778C2257.85 967.778 2254.69 994.244 2260.62 993.864C2266.55 993.484 2281.07 990.637 2282.06 986.081C2283.05 981.524 2270.95 960.261 2270.95 960.261L2257.85 967.778Z" fill="#BBCBD1"/>
<path d="M2258.61 967.709C2258.61 967.709 2254.07 973.35 2253.68 977.791C2253.29 982.234 2251.12 989.989 2253.16 990.49C2255.19 990.991 2258.91 980.827 2258.91 980.827L2258.61 967.709Z" fill="#BBCBD1"/>
<path d="M2164.01 697.644C2164.01 697.644 2189.64 703.78 2209.91 742.71C2230.17 781.642 2246.18 860.16 2255.86 880.886C2265.53 901.611 2272.9 963.796 2272.9 963.796C2272.9 963.796 2271.39 966.886 2266.17 968.017C2262.13 968.894 2257.97 968.551 2257.97 968.551C2257.97 968.551 2219.86 907.503 2214.39 885.568C2211.43 873.7 2166.2 778.695 2166.2 778.695L2164.01 697.644Z" fill="white"/>
<path d="M475.731 1375.44L471.89 1347.77L488.024 1334.29L493.107 1370.92L475.731 1375.44Z" fill="#BBCBD1"/>
<path d="M529.31 1400.15H463.532C463.532 1400.15 461.956 1390.12 465.391 1382.52C468.683 1375.22 473.806 1370.71 474.274 1365.12C478.454 1369.43 483.597 1372.19 493.106 1370.91C494.272 1372.8 500.627 1382.91 504.52 1385.71C508.819 1388.8 527.987 1387.7 529.31 1400.15Z" fill="#233862"/>
<path d="M516.094 1001.88C511.792 1036.48 508.275 1069.11 505.409 1099.51C490.1 1261.52 493.105 1360.54 493.105 1360.54C493.105 1360.54 491.999 1363.47 482.508 1363.51C477.144 1363.54 471.889 1362.37 471.889 1362.37C471.889 1362.37 437.615 1256.58 440.26 1196.38C440.575 1189.14 441.426 1182.56 442.935 1176.89C451.158 1146.09 412.508 1028.3 454.521 984.431C496.528 940.57 518.073 985.999 516.094 1001.88Z" fill="#00AEEF"/>
<path d="M516.094 1001.88C511.792 1036.48 508.275 1069.11 505.409 1099.51L440.261 1196.38C440.576 1189.14 441.427 1182.56 442.936 1176.89C451.159 1146.09 412.509 1028.3 454.522 984.431C496.528 940.57 518.073 985.999 516.094 1001.88Z" fill="#00AEEF"/>
<path d="M567.864 671.808C567.864 671.808 566.278 663.902 564.493 657.868C563.703 655.198 569.209 637.663 573.019 635.505C576.83 633.347 586.754 645.156 583.946 654.223C582.504 658.881 580.133 674.037 580.133 674.037L567.864 671.808Z" fill="#BBCBD1"/>
<path d="M567.864 671.808C567.864 671.808 565.792 667.224 563.922 666.481C562.051 665.738 560.047 658.242 558.673 655.27C558.673 655.27 559.999 653.325 562.32 655.827C563.737 657.353 566.892 661.827 566.892 661.827L567.864 671.808Z" fill="#BBCBD1"/>
<path d="M296.323 698.402C295.92 699.234 295.36 700.721 294.86 702.12C294.852 701.738 294.846 701.361 294.842 700.99C294.816 698.206 284.418 683.051 280.143 682.102C275.868 681.153 269.834 695.35 275.173 703.199C277.916 707.23 284.618 721.029 284.618 721.029L295.698 715.306C295.698 715.306 296.337 710.316 297.909 709.058C299.48 707.8 299.203 700.045 299.647 696.802C299.647 696.802 297.81 695.331 296.323 698.402Z" fill="#BBCBD1"/>
<path d="M365.417 1367.14C364.487 1358.28 364.257 1334.95 364.257 1334.95C364.257 1334.95 388.028 1327.35 387.153 1332.57C382.852 1358.22 384.019 1370.92 384.019 1370.92L374.406 1376.66L365.417 1367.14Z" fill="#BBCBD1"/>
<path d="M496.241 1000.23C496.241 1000.23 404.409 1251.96 386.332 1361.15C386.332 1361.15 382.144 1364.02 374.332 1363.07C365.472 1361.99 363.044 1355.83 363.044 1355.83C363.044 1355.83 346.454 1224.96 379.428 1179.53C402.082 1148.31 369.657 1011.22 422.42 1000.23C475.185 989.237 496.241 1000.23 496.241 1000.23Z" fill="#00AEEF"/>
<path d="M479.931 758.082C479.93 758.073 479.93 758.073 479.93 758.073C479.913 757.963 479.888 757.854 479.853 757.747C479.317 755.531 478.73 753.351 478.1 751.186C478.098 751.177 478.098 751.177 478.098 751.177C476.176 744.557 473.89 738.254 471.422 732.691C470.001 729.501 468.53 726.544 467.024 723.91C466.794 723.504 466.569 723.125 466.353 722.735L466.342 722.727C462.794 716.762 459.145 712.639 455.854 711.367C449.85 709.047 443.171 709.693 438.573 710.649C439.582 709.243 441.871 708.444 441.871 708.444C438.929 708.441 432.935 712.247 432.935 712.247C390.639 702.788 393.111 762.62 395.991 776.181C398.861 789.743 385.243 796.331 366.038 810.207C329.387 836.684 330.001 864.748 330.001 864.748C330.331 864.887 330.692 865.048 331.067 865.236C332.542 861.606 335.67 854.732 338.948 853.279C338.856 853.602 336.189 862.507 335.431 867.491C341.014 870.568 348.74 875.331 357.129 880.708C357.129 880.708 357.129 880.708 357.139 880.716C368.365 887.901 380.754 896.167 390.681 902.88C390.209 900.149 389.742 896.254 390.436 894.052L393.599 903.851L394.014 905.129C400.35 909.424 405.349 912.859 407.887 914.618C408.148 914.795 408.378 914.958 408.586 915.095C409.327 915.604 409.725 915.882 409.725 915.882C408.882 912.419 412.579 903.389 418.785 892.009C419.21 891.215 419.662 890.408 420.121 889.59C422.125 885.993 424.363 882.203 426.77 878.294C427.637 876.882 428.514 875.468 429.424 874.029C429.422 874.02 429.432 874.019 429.432 874.019C430.159 872.861 430.897 871.711 431.659 870.54L431.667 870.529C433.465 867.751 435.326 864.953 437.223 862.15C442.14 854.888 447.345 847.677 452.489 841.065C459.958 831.437 467.286 823.067 473.424 817.591C473.625 817.177 473.815 816.755 473.986 816.326C474.947 814.094 475.684 811.614 476.255 809.093C476.433 808.336 476.591 807.572 476.731 806.811C478.26 798.76 478.29 790.773 478.27 788.873C478.762 796.652 478.566 802.519 478.045 806.952C477.927 807.926 477.799 808.826 477.651 809.663L477.653 809.672C477.326 811.567 476.949 813.131 476.543 814.428C477.548 813.183 478.431 811.815 479.212 810.321C479.723 809.346 480.189 808.321 480.601 807.248C485.552 794.612 484.219 775.762 479.931 758.082Z" fill="#163560"/>
<path d="M471.984 818.694C472.126 818.735 460.143 827.409 449.978 826.19C440.418 825.051 432.642 814.032 432.765 813.986C436.541 812.634 436.868 807.121 433.368 784.156L435.178 784.241L465.625 785.698C465.625 785.698 466.336 795.106 467.621 803.878C468.696 811.243 470.182 818.159 471.984 818.694Z" fill="#BBCBD1"/>
<path d="M465.625 785.698C465.625 785.698 466.336 795.106 467.621 803.878C451.001 805.873 440.008 792.077 435.178 784.241L465.625 785.698Z" fill="#ED975D"/>
<path d="M431.644 781.477C431.644 781.477 420.933 769.063 417.108 757.655C414.377 749.51 414.025 717.866 445.852 717.697C445.852 717.697 455.036 717.242 464.397 721.722C471.843 725.285 483.075 733.699 476.182 762.383L474.705 771.946L431.644 781.477Z" fill="#163560"/>
<path d="M519.932 995.396C519.932 995.396 480.311 1018.94 430.566 1006.84C429.98 1006.69 389.605 1000.25 389.605 1000.25C390.299 998.35 395.517 967.16 396.199 965.415C405.024 942.641 421.153 819.037 434.629 812.939C438.07 816.687 447.904 819.252 456.321 818.504C466.013 817.648 469.259 813.46 468.454 808.956C479.18 814.027 487.421 818.741 487.421 818.741C497.223 833.433 519.932 995.396 519.932 995.396Z" fill="white"/>
<path d="M472.388 793.18C472.388 793.18 433.326 799.65 429.671 775.263C426.016 750.874 418.513 735.285 443.299 730.122C468.084 724.96 474.336 733.538 477.535 741.382C480.734 749.225 482.454 790.867 472.388 793.18Z" fill="#BBCBD1"/>
<path d="M461.043 726.873C461.043 726.873 454.578 757.083 438.754 763.762C422.93 770.441 415.137 767.094 415.137 767.094C415.137 767.094 426.266 755.192 426.283 737.3C426.283 737.3 450.93 714.456 461.043 726.873Z" fill="#163560"/>
<path d="M458.731 729.592C458.731 729.592 467.688 734.789 470.564 740.71C473.44 746.631 476.22 759.287 479.882 758.298C479.882 758.298 485.066 737.647 474.352 727.993C462.992 717.758 458.731 729.592 458.731 729.592Z" fill="#163560"/>
<path d="M580.4 672.372C578.812 671.813 576.47 670.489 573.417 670.214C570.697 669.969 567.28 670.856 567.28 670.856C567.28 670.856 556.259 739.363 555.441 742.993C554.623 746.622 508.171 798.951 495.647 798.741C484.338 798.552 470.94 807.282 468.454 808.96C468.454 808.96 494.791 864.65 496.104 875.112C497.533 886.495 511.167 1061.79 511.167 1061.79C511.167 1061.79 510.356 1069.94 525.593 1065.56C540.829 1061.17 544.64 1057.55 544.64 1057.55C544.64 1057.55 530.644 919.545 527.708 876.628C527.314 870.866 526.374 865.534 525.035 860.615C523.744 855.872 524.762 850.8 527.657 846.827C546.921 820.383 577.341 777.54 579.036 768.434C581.524 755.054 580.4 672.372 580.4 672.372Z" fill="#2B478B"/>
<path d="M420.223 1400.15H354.445C354.445 1400.15 352.868 1390.12 356.304 1382.52C359.596 1375.22 364.719 1370.71 365.187 1365.12C369.367 1369.43 374.51 1372.19 384.02 1370.91C385.185 1372.8 391.541 1382.91 395.434 1385.71C399.731 1388.8 418.898 1387.7 420.223 1400.15Z" fill="#233862"/>
<path d="M465.408 880.519C463.192 866.877 434.888 812.102 434.888 812.102C434.888 812.102 416.995 806.75 405.219 811.017C393.443 815.283 332.512 780.88 330.559 777.714C328.606 774.546 295.971 713.735 295.971 713.735C295.971 713.735 293.265 712.168 288.929 714.427C284.64 716.662 284.62 721.029 284.62 721.029C284.62 721.029 309.807 797.594 316.508 809.439C320.549 816.582 354.521 841.448 380.86 860.068C385.889 863.624 388.53 869.677 387.704 875.781C384.162 901.963 383.261 916.707 379.188 961.635C375.809 998.905 374.516 1071.06 374.516 1071.06C374.516 1071.06 403.991 1081.26 424.332 1082.61C444.674 1083.97 449.107 1062.52 449.107 1062.52C449.107 1062.52 467.686 894.545 465.408 880.519Z" fill="#2B478B"/>
<path d="M459.587 781.123C459.587 781.123 464.333 783.909 469.936 783.069C473.775 782.494 474.646 777.94 474.646 777.94C474.646 777.94 471.978 777.099 467.72 777.955C463.463 778.81 459.587 781.123 459.587 781.123Z" fill="white"/>
<path d="M1707.24 316.22C1707.24 316.22 1688.97 283.738 1707.24 277.131C1725.52 270.524 1733.79 276.616 1734.66 284.015C1735.53 291.413 1727.7 320.573 1727.7 320.573L1707.24 316.22Z" fill="#BBCBD1"/>
<path d="M1721.89 523.962C1688.57 529.968 1657.93 532.754 1630.27 533.372C1604.02 533.964 1580.47 532.597 1559.85 530.204C1554.31 529.569 1548.99 528.855 1543.88 528.08C1489.93 519.898 1460.13 505.389 1460.13 505.389C1460.13 505.389 1509.43 402.192 1549.26 406.153C1595.98 410.81 1675.15 452.737 1683.02 440.978C1691.88 427.73 1699.3 314.115 1699.3 314.115C1720.01 299.927 1732.38 314.881 1732.38 314.881C1732.38 314.881 1772.85 514.771 1721.89 523.962Z" fill="#00AEEF"/>
<path d="M1721.89 523.962C1688.57 529.968 1657.93 532.754 1630.27 533.372C1604.02 533.964 1580.47 532.597 1559.85 530.204C1547.42 490.67 1538.48 450.291 1563.48 474.637C1607.58 517.573 1721.89 523.962 1721.89 523.962Z" fill="#00AEEF"/>
<path d="M1456.39 1357.18C1456.39 1357.18 1452.85 1398.21 1461.52 1402.48L1572.5 1402.25C1572.5 1402.25 1572.5 1389.44 1554.67 1386.59C1536.85 1383.75 1505.53 1373.31 1500.23 1350.07C1494.93 1326.82 1456.39 1357.18 1456.39 1357.18Z" fill="#233862"/>
<path d="M1537.87 860.656C1537.32 887.482 1536.03 915.153 1533.51 940.021C1521.52 1058.02 1517.31 1200.6 1515.59 1228.08C1512.6 1275.8 1503.18 1352.03 1503.18 1352.03C1503.18 1352.03 1484.48 1369.78 1448.03 1361.31C1448.03 1361.31 1417.84 1251.52 1411.09 1135.91C1410.99 1134.01 1410.89 1132.1 1410.79 1130.2C1410.01 1114.91 1409.19 1097.43 1408.35 1078.59C1402.8 952.362 1396.77 764.849 1396.77 764.849L1536.03 732.147C1536.03 732.147 1539.24 793.782 1537.87 860.656Z" fill="#2A4E96"/>
<path d="M1537.87 860.656C1502.57 921.55 1435.3 1033.74 1408.35 1078.59C1402.8 952.363 1396.77 764.849 1396.77 764.849L1536.03 732.148C1536.03 732.148 1539.24 793.782 1537.87 860.656Z" fill="#233862"/>
<path d="M1185.24 742.697C1185.24 742.697 1162.58 769.347 1160.54 776.736C1158.5 784.125 1154.87 810.75 1156.82 818.749C1158.76 826.749 1173.83 796.442 1179.31 793.205C1184.79 789.969 1175.2 805.259 1177.07 807.811C1178.94 810.363 1189.76 798.885 1193.98 795.002C1198.2 791.118 1197.78 770.216 1202.85 757.856C1207.92 745.495 1185.24 742.697 1185.24 742.697Z" fill="#BBCBD1"/>
<path d="M1179.93 1310.56C1179.93 1310.56 1160.17 1328.58 1164.03 1341.39C1167.88 1354.2 1185.71 1362.74 1188.12 1378.39C1190.53 1394.05 1200.16 1402.59 1208.83 1402.59C1217.51 1402.59 1250.18 1402.59 1250.18 1402.59C1250.18 1402.59 1256.56 1391.57 1241.14 1388.25C1225.73 1384.93 1219.91 1366.53 1220.88 1349.46C1221.84 1332.38 1219.43 1309.61 1219.43 1309.61L1186.67 1302.02L1179.93 1310.56Z" fill="#233862"/>
<path d="M1514.09 767.707C1514.09 767.707 1383.72 1046.65 1314.34 1169.04C1244.97 1291.43 1223.29 1325.58 1223.29 1325.58C1223.29 1325.58 1183.54 1309.93 1179.93 1299.26C1179.93 1299.26 1206.46 1062.97 1252.92 1005.37C1279.17 972.828 1310.01 875.156 1311.45 841C1312.9 806.845 1343.35 725.322 1343.35 725.322L1514.09 767.707Z" fill="#2A4E96"/>
<path d="M1552.2 780.861C1552.2 780.861 1500.36 815.522 1426.98 812.303C1394.78 810.896 1330.91 801.766 1320.6 776.157C1318.18 770.144 1319.95 762.513 1323.58 750.801C1333 720.36 1354.97 662.393 1348.34 533.865C1347.72 521.908 1348.05 510.663 1349.2 500.136C1356.11 436.828 1392.39 399.336 1427.46 387.086C1512.98 357.195 1541.49 398.607 1541.49 398.607C1541.49 398.607 1579.29 428.556 1584.99 491.059C1596.38 616.081 1552.2 780.861 1552.2 780.861Z" fill="#00AEEF"/>
<path d="M1452.52 379.905C1452.52 379.905 1491.76 403.772 1534.32 397.023C1534.32 397.023 1542.74 394.883 1538.6 385.005C1541.19 377.033 1540.88 377.751 1542.38 371.826C1546.11 358.192 1547.25 350.326 1547.25 350.326L1523.1 324.939L1500.22 300.679C1493.9 358.663 1452.52 379.905 1452.52 379.905Z" fill="#BBCBD1"/>
<path d="M1496.56 322.669C1496.56 322.669 1509.7 357.802 1542.38 371.826C1546.11 358.192 1548.54 343.929 1548.54 343.929L1523.1 324.939L1496.56 322.669Z" fill="#ED985F"/>
<path d="M1574.35 349.099C1574.35 349.099 1499.45 358.462 1494.19 312.432C1488.93 266.403 1475.72 236.612 1523.32 228.687C1570.93 220.763 1582.24 237.307 1587.79 252.254C1593.34 267.203 1593.7 345.477 1574.35 349.099Z" fill="#BBCBD1"/>
<path d="M1470.54 221.206C1469.89 220.406 1468.36 219.722 1464.9 219.401C1464.9 219.401 1467.74 217.772 1471.45 217.82C1472.35 213.024 1475.24 204.583 1483.62 202.822C1483.62 202.822 1479.07 205.031 1478.3 210.138C1488.28 200.626 1509.16 194.217 1566.04 200.878C1641.01 209.656 1614.41 256.859 1604.45 262.23C1594.5 267.601 1570.6 250.941 1552.41 251.695C1534.22 252.448 1529.77 278.525 1523.49 281.888C1517.2 285.252 1519.86 278.985 1511.68 274.907C1503.49 270.829 1502.18 284.594 1504.24 293.653C1506.31 302.713 1494.42 314.11 1494.42 314.11C1494.42 314.11 1494.42 314.11 1483.34 301.225C1472.25 288.34 1463.35 235.202 1469.03 224.162C1469.53 223.187 1470.03 222.198 1470.54 221.206Z" fill="#2C3A64"/>
<path d="M1699.3 294.674L1572.14 295.806L1571.27 276.677L1698.03 266.853L1699.3 294.674Z" fill="#2A4E96"/>
<path d="M1795.29 297.867L1656.84 299.869L1655.26 265.088L1793.31 254.391L1795.29 297.867Z" fill="#2A4E96"/>
<path d="M1888.64 300.597L1771.89 300.742L1769.76 253.788L1886.03 243.209L1888.64 300.597Z" fill="#233862"/>
<path d="M1890.31 308.523C1893.91 308.359 1896.7 305.307 1896.53 301.706L1893.79 241.39C1893.63 237.788 1890.58 235.001 1886.98 235.165C1883.38 235.329 1880.59 238.381 1880.75 241.983L1883.49 302.298C1883.65 305.899 1886.71 308.687 1890.31 308.523Z" fill="#233862"/>
<path d="M1571.74 299.889C1568.54 300.035 1565.83 297.557 1565.68 294.356L1564.97 278.705C1564.82 275.503 1567.3 272.79 1570.5 272.645C1573.7 272.5 1576.42 274.977 1576.56 278.178L1577.27 293.829C1577.42 297.031 1574.94 299.744 1571.74 299.889Z" fill="#2A4E96"/>
<path d="M1323.58 750.801C1333.01 720.36 1354.97 662.393 1348.34 533.865C1347.72 521.908 1348.06 510.663 1349.2 500.136L1349.21 500.137C1377.35 497.718 1420.38 528.144 1420.38 528.144C1420.38 528.144 1393.88 689.679 1323.58 750.801Z" fill="#00AEEF"/>
<path d="M1452.52 379.905C1452.52 379.905 1380.35 392.31 1342.71 438.261C1305.07 484.212 1244.52 549.004 1230.21 571.692C1215.89 594.381 1176.15 748.789 1176.15 748.789C1176.15 748.789 1178.78 753.753 1189.74 756.643C1200.23 759.408 1207.84 755.121 1207.84 755.121C1207.84 755.121 1260.49 665.012 1280.31 619.996C1288.54 601.293 1430.93 527.224 1484.46 534.898C1505.48 537.912 1452.52 379.905 1452.52 379.905Z" fill="#00AEEF"/>
<path d="M1698.54 261.374C1698.54 261.374 1714.06 270.869 1723.35 266.852C1732.63 262.835 1731.81 259.157 1731.81 259.157C1731.81 259.157 1703.76 251.374 1698.54 261.374Z" fill="#BBCBD1"/>
<path d="M1522.55 430.245C1522.55 430.245 1490.88 630.2 1266.17 688.416L1241.69 736.71L1284.69 743.987C1284.69 743.987 1540.51 669.874 1537.07 426.709L1522.55 430.245Z" fill="#3AA1C9"/>
<path d="M1517.64 398.329L1507.27 399.345V414.359L1522.55 430.245L1537.08 426.709V405.873L1526.63 398.329H1517.64Z" fill="#A02E2E"/>
<path d="M1476.94 358.565C1476.94 358.565 1466.9 360.83 1443.94 379.904C1443.94 379.904 1466.77 428.359 1514.93 434.162C1514.93 434.162 1514.16 411.675 1517.64 398.328C1517.64 398.328 1479.47 384.664 1476.94 358.565Z" fill="#00AEEF"/>
<path d="M1517.64 398.329C1517.64 398.329 1541.14 410.805 1542.88 430.245C1542.88 430.245 1551.86 416.012 1549.26 406.156C1546.65 396.299 1538.6 385.006 1538.6 385.006C1538.6 385.006 1539.4 396.878 1517.64 398.329Z" fill="#00AEEF"/>
</svg>
