<svg width="92" height="39" viewBox="0 0 92 39" fill="none" xmlns="http://www.w3.org/2000/svg">
<path d="M28.884 11.2667V10.4507H29.1787C29.1636 10.4507 29.8889 10.4658 31.3547 10.496C32.6089 10.5111 33.9538 10.5111 35.3893 10.496L37.86 10.4507H38.1773V11.2667V12.0827H36.6587H35.1173V18.2253V24.368H36.092C36.7871 24.368 37.2027 24.3529 37.3387 24.3227C37.9582 24.2471 38.5173 24.0431 39.016 23.7107C39.9378 23.076 40.5196 22.0182 40.7613 20.5373C40.8822 19.8724 40.9427 19.4418 40.9427 19.2453C40.9427 19.2302 41.2147 19.2227 41.7587 19.2227H42.5747V19.336C42.5444 19.4116 42.4311 20.4996 42.2347 22.6C42.008 24.7609 41.8871 25.8564 41.872 25.8867V26H35.3667H28.884V25.184V24.368H30.108H31.332V18.2253V12.0827H30.108H28.884V11.2667ZM44.578 11.2667V10.4507H47.7513H50.9473L51.0607 10.5187C51.2118 10.5942 51.3402 10.768 51.446 11.04L53.826 16.7067L56.07 22.056L58.314 16.7067L60.694 11.04C60.7998 10.768 60.9358 10.5942 61.102 10.5187L61.2153 10.4507H64.366H67.5394V11.2667V12.0827H66.3153H65.0914V18.2253V24.368H66.3153H67.5394V25.184V26H67.2674C67.2825 26 66.5873 25.9849 65.182 25.9547C63.9882 25.9396 62.7945 25.9396 61.6007 25.9547C60.1953 25.9849 59.5002 26 59.5153 26H59.2433V25.184V24.368H60.4673H61.6913V18.316L61.6687 12.3093C61.5931 12.4604 60.6562 14.6969 58.858 19.0187C56.9842 23.4613 56.0322 25.6978 56.002 25.728C55.9265 25.8489 55.8131 25.932 55.662 25.9773C55.5109 26.0227 55.2313 26.0302 54.8233 26C54.7629 26 54.7176 25.9924 54.6873 25.9773C54.5362 25.932 54.4229 25.8489 54.3473 25.728C54.3171 25.6978 53.3878 23.5067 51.5593 19.1547C49.7309 14.7724 48.8167 12.5889 48.8167 12.604L48.794 18.4293V18.4747V24.368H50.018H51.242V25.184V26H51.0153C51.0305 26 50.4789 25.9849 49.3607 25.9547C48.3936 25.9396 47.4265 25.9396 46.4593 25.9547C45.3411 25.9849 44.7896 26 44.8047 26H44.578V25.184V24.368H45.802H47.026V18.2253V12.0827H45.802H44.578V11.2667ZM74.3121 10.224C74.9467 10.1636 75.5587 10.1862 76.1481 10.292C76.9792 10.4129 77.765 10.7151 78.5054 11.1987C78.5961 11.2742 78.6641 11.3044 78.7094 11.2893C78.785 11.2138 78.9814 11.04 79.2987 10.768C79.6916 10.4356 79.8956 10.2618 79.9107 10.2467C79.9561 10.2164 80.0619 10.2013 80.2281 10.2013C80.4094 10.2013 80.5227 10.2164 80.5681 10.2467C80.6436 10.292 80.689 10.3978 80.7041 10.564C80.7192 10.7756 80.7267 11.5613 80.7267 12.9213C80.7267 14.6138 80.6739 15.4978 80.5681 15.5733C80.5076 15.6036 80.2885 15.6187 79.9107 15.6187C79.533 15.6187 79.3139 15.6036 79.2534 15.5733C79.1627 15.528 79.1023 15.3693 79.0721 15.0973C78.9814 14.6138 78.8379 14.168 78.6414 13.76C78.4601 13.3822 78.2107 13.0498 77.8934 12.7627C77.2436 12.128 76.337 11.788 75.1734 11.7427C73.9343 11.6973 73.1485 12.1053 72.8161 12.9667C72.7405 13.1782 72.7027 13.42 72.7027 13.692C72.7027 13.9942 72.7556 14.2587 72.8614 14.4853C73.0881 14.9538 73.4961 15.3013 74.0854 15.528C74.1912 15.5884 74.773 15.7244 75.8307 15.936C76.9187 16.1627 77.5232 16.2987 77.6441 16.344C78.309 16.5102 78.9059 16.7898 79.4347 17.1827C80.5227 17.9836 81.1801 19.0791 81.4067 20.4693C81.4672 20.8924 81.4672 21.4213 81.4067 22.056C81.3161 22.6302 81.1423 23.1818 80.8854 23.7107C80.5832 24.3302 80.1827 24.8289 79.6841 25.2067C78.989 25.7356 78.1503 26.068 77.1681 26.204C76.7903 26.2644 76.2085 26.272 75.4227 26.2267C75.3472 26.2116 75.2867 26.204 75.2414 26.204C73.9419 26.068 72.8992 25.7431 72.1134 25.2293C72.0227 25.1689 71.9547 25.1462 71.9094 25.1613C71.8339 25.2369 71.6374 25.4107 71.3201 25.6827C70.9272 26.0151 70.7232 26.1889 70.7081 26.204C70.6627 26.2342 70.557 26.2493 70.3907 26.2493C70.2094 26.2493 70.0961 26.2342 70.0507 26.204C69.9752 26.1587 69.9299 26.0529 69.9147 25.8867C69.8996 25.6751 69.8921 24.8969 69.8921 23.552C69.8921 21.9049 69.9072 21.0587 69.9374 21.0133C69.9525 20.9831 69.9827 20.9453 70.0281 20.9C70.1036 20.8547 70.3227 20.832 70.6854 20.832C71.0783 20.832 71.305 20.8471 71.3654 20.8773C71.4712 20.9378 71.5241 21.0964 71.5241 21.3533C71.5694 22.1693 71.8565 22.8418 72.3854 23.3707C72.7783 23.7636 73.3223 24.0733 74.0174 24.3C74.909 24.5871 75.8005 24.6853 76.6921 24.5947C76.813 24.5796 76.9187 24.5644 77.0094 24.5493C77.4325 24.4587 77.7801 24.2773 78.0521 24.0053C78.3543 23.7031 78.5507 23.2951 78.6414 22.7813C78.7623 22.0107 78.5507 21.3533 78.0067 20.8093C77.7801 20.5524 77.4854 20.3711 77.1227 20.2653C77.0623 20.2351 76.4579 20.0916 75.3094 19.8347C74.2214 19.6231 73.6019 19.4871 73.4507 19.4267C72.3325 19.1093 71.4561 18.5124 70.8214 17.636C70.1716 16.7747 69.8619 15.8076 69.8921 14.7347C69.9374 13.6618 70.2547 12.74 70.8441 11.9693C71.4032 11.2138 72.2192 10.6924 73.2921 10.4053C73.6547 10.3147 73.9947 10.2542 74.3121 10.224Z" fill="white"/>
<path d="M7.84852 22.398V19.9374L12.211 21.1838L12.3751 21.2307H12.5457H12.9678H13.1385L13.3025 21.1838L17.665 19.9374V22.4057L12.9744 23.4592L7.84852 22.398Z" stroke="white" stroke-width="2.43654"/>
<mask id="path-3-inside-1_288_1687" fill="white">
<path d="M3.47229 16.2126V21.4444H2.45117V16.2126H3.47229Z"/>
</mask>
<path d="M3.47229 16.2126H5.90883V13.7761H3.47229V16.2126ZM3.47229 21.4444V23.8809H5.90883V21.4444H3.47229ZM2.45117 21.4444H0.0146296V23.8809H2.45117V21.4444ZM2.45117 16.2126V13.7761H0.0146296V16.2126H2.45117ZM1.03575 16.2126V21.4444H5.90883V16.2126H1.03575ZM3.47229 19.0079H2.45117V23.8809H3.47229V19.0079ZM4.88771 21.4444V16.2126H0.0146296V21.4444H4.88771ZM2.45117 18.6492H3.47229V13.7761H2.45117V18.6492Z" fill="white" mask="url(#path-3-inside-1_288_1687)"/>
<path d="M2.92542 22.2683C2.92542 22.2077 2.94455 22.1635 2.96165 22.1388C2.97876 22.1635 2.99788 22.2077 2.99788 22.2683C2.99788 22.329 2.97874 22.3731 2.96165 22.3978C2.94454 22.3731 2.92542 22.329 2.92542 22.2683Z" stroke="white" stroke-width="2.43654"/>
<path d="M6.8892 14.4956L12.7568 12.8192L18.6244 14.4956L22.3043 15.547L18.6244 16.5984L12.7568 18.2749L6.8892 16.5984L6.88919 16.5984L3.2093 15.547L6.88919 14.4956L6.55451 13.3242L6.8892 14.4956Z" stroke="white" stroke-width="2.43654"/>
<path d="M49 2H82C84.8003 2 86.2004 2 87.2699 2.545C88.2108 3.02425 88.9757 3.78925 89.455 4.73C90 5.7995 90 7.19975 90 10V29C90 31.8003 90 33.2004 89.455 34.2699C88.9757 35.2108 88.2108 35.9757 87.2699 36.455C86.2004 37 84.8003 37 82 37H2.5" stroke="white" stroke-width="3" stroke-linecap="round" stroke-linejoin="round"/>
</svg>
